<svg width="68.07499999999999px" height="105.2px" xmlns="http://www.w3.org/2000/svg" viewBox="215.9625 22.4 68.07499999999999 105.2" style="background:#051103" preserveAspectRatio="xMidYMid"><defs><linearGradient id="editing-glowing-gradient" x1="0.9871850323926177" x2="0.012814967607382377" y1="0.3875244728280676" y2="0.6124755271719324"><stop offset="0" stop-color="#67ff43"></stop><stop offset="1" stop-color="#90ffff"></stop></linearGradient><filter id="editing-glowing" x="-100%" y="-100%" width="300%" height="300%"><feGaussianBlur in="SourceGraphic" result="blur" stdDeviation="3"></feGaussianBlur><feMerge><feMergeNode in="blur"></feMergeNode><feMergeNode in="SourceGraphic"></feMergeNode></feMerge></filter></defs><g filter="url(#editing-glowing)"><g transform="translate(232.89001166820526, 97.16000366210938)"><path d="M15.71-0.05L15.71-0.05L12.80-0.10L12.80-0.10Q12.19-0.10 11.58-0.10L11.58-0.10L2.30 0.36L2.30 0.36Q1.53 0.36 1.53-0.15L1.53-0.15L1.53-0.15Q1.53-0.31 1.68-0.87L1.68-0.87L1.68-0.87Q2.19-2.04 2.42-8.31L2.42-8.31L2.42-8.31Q2.65-14.59 2.65-19.76L2.65-19.76L2.65-19.76Q2.65-24.94 2.45-28.15L2.45-28.15L2.45-28.15Q2.14-33.00 1.43-33.97L1.43-33.97L1.43-33.97Q0.87-34.68 0.87-34.88L0.87-34.88L0.87-34.88Q0.87-35.70 3.62-36.31L3.62-36.31L3.62-36.31Q6.38-36.92 7.57-36.92L7.57-36.92L7.57-36.92Q8.77-36.92 9.08-36.80L9.08-36.80L9.08-36.80Q9.38-36.67 9.38-36.26L9.38-36.26L9.38-36.26Q9.38-35.85 9.18-33.66L9.18-33.66L9.18-33.66Q8.67-27.18 8.67-18.59L8.67-18.59L8.67-18.59Q8.67-10.00 9.08-4.85L9.08-4.85L9.08-4.85Q9.08-4.28 10.05-3.88L10.05-3.88L10.05-3.88Q11.02-3.47 12.44-3.47L12.44-3.47L12.44-3.47Q17.44-3.47 17.44-11.17L17.44-11.17L17.44-11.17Q17.44-13.31 17.21-13.82L17.21-13.82L17.21-13.82Q16.98-14.33 16.98-14.48L16.98-14.48L16.98-14.48Q16.98-14.99 17.70-14.99L17.70-14.99L17.70-14.99Q18.26-14.99 19.20-14.43L19.20-14.43L19.20-14.43Q20.15-13.87 20.76-13.03L20.76-13.03L20.76-13.03Q21.37-12.19 21.88-10.38L21.88-10.38L21.88-10.38Q22.39-8.57 22.39-6.12L22.39-6.12L22.39-6.12Q22.39-0.05 20.91-0.05L20.91-0.05L20.91-0.05Q18.31-0.05 15.71-0.05ZM26.57-9.44L26.57-9.44L26.67-19.74L26.67-19.74Q26.67-31.82 25.50-33.41L25.50-33.41L25.50-33.41Q24.94-34.12 24.94-34.40L24.94-34.40L24.94-34.40Q24.94-34.68 25.63-35.06L25.63-35.06L25.63-35.06Q26.32-35.45 28.31-35.90L28.31-35.90L28.31-35.90Q30.29-36.36 31.82-36.36L31.82-36.36L31.82-36.36Q33.35-36.36 33.35-35.65L33.35-35.65L33.25-34.99L33.25-34.99Q32.64-29.48 32.64-24.23L32.64-24.23L32.64-24.23Q32.64-18.97 32.95-12.50L32.95-12.50L32.95-12.50Q33.25-6.02 33.25-2.96L33.25-2.96L33.25-2.96Q33.25 1.17 30.06 4.16L30.06 4.16L30.06 4.16Q26.88 7.14 22.49 7.40L22.49 7.40L22.49 7.40Q21.62 7.29 21.62 6.78L21.62 6.78L21.62 6.78Q21.62 6.43 21.85 6.22L21.85 6.22L21.85 6.22Q22.08 6.02 22.39 5.71L22.39 5.71L22.39 5.71Q22.70 5.41 23.51 4.13L23.51 4.13L23.51 4.13Q24.33 2.86 24.94 1.25L24.94 1.25L24.94 1.25Q25.55-0.36 26.06-3.21L26.06-3.21L26.06-3.21Q26.57-6.07 26.57-9.44Z" fill="url(#editing-glowing-gradient)"></path></g></g><style>text {
  font-size: 64px;
  font-family: Arial Black;
  dominant-baseline: central;
  text-anchor: middle;
}</style></svg>